<?xml version="1.0" encoding="UTF-8"?>
<!DOCTYPE xmeml>
<xmeml version="5">
  <sequence id="Sequence 1">
    <name>Sequence 1</name>
    <duration>977</duration>
    <rate>
      <ntsc>FALSE</ntsc>
      <timebase>25</timebase>
    </rate>
    <timecode>
      <rate>
        <ntsc>FALSE</ntsc>
        <timebase>25</timebase>
      </rate>
      <frame>90000</frame>
      <displayformat>NDF</displayformat>
      <string>01:00:00:00</string>
    </timecode>
    <media>
      <video>
        <format>
          <samplecharacteristics>
            <width>1920</width>
            <height>1080</height>
            <rate>
              <ntsc>FALSE</ntsc>
              <timebase>25</timebase>
            </rate>
          </samplecharacteristics>
        </format>
        <track>
          <name>Video 1</name>
          <clipitem>
            <name>fuy004058_prd_jianghh_tga2k_v0101_v0101</name>
            <duration>102</duration>
            <rate>
              <ntsc>FALSE</ntsc>
              <timebase>25</timebase>
            </rate>
            <enabled>TRUE</enabled>
            <in>0.0</in>
            <out>102.0</out>
            <start>0</start>
            <end>102</end>
            <file id="fuy004058_prd_jianghh_tga2k_v0101_v0101">
              <name>fuy004058_prd_jianghh_tga2k_v0101_v0101</name>
              <pathurl>file://localhost/Users/waNg/DESKtOp/20180731/plate/fuy004058_prd_jianghh_tga2k_v0101_v0101.mov</pathurl>
              <duration>102</duration>
              <rate>
                <ntsc>FALSE</ntsc>
                <timebase>25</timebase>
              </rate>
              <width>2048</width>
              <height>1152</height>
              <media>
                <video>
                  <duration>102</duration>
                  <samplecharacteristics>
                    <width>2048</width>
                    <height>1152</height>
                  </samplecharacteristics>
                </video>
                <audio>
                  <channelcount>2</channelcount>
                  <samplecharacteristics>
                    <depth>16</depth>
                    <samplerate>48000</samplerate>
                  </samplecharacteristics>
                </audio>
              </media>
              <timecode>
                <rate>
                  <ntsc>FALSE</ntsc>
                  <timebase>25</timebase>
                </rate>
                <frame>49635</frame>
                <displayformat>NDF</displayformat>
                <string>00:33:05:10</string>
              </timecode>
            </file>
          </clipitem>
          <clipitem>
            <name>fuy004060_prd_jianghh_tga2k_v0101_v0101</name>
            <duration>92</duration>
            <rate>
              <ntsc>FALSE</ntsc>
              <timebase>25</timebase>
            </rate>
            <enabled>TRUE</enabled>
            <in>0.0</in>
            <out>92.0</out>
            <start>102</start>
            <end>194</end>
            <file id="fuy004060_prd_jianghh_tga2k_v0101_v0101">
              <name>fuy004060_prd_jianghh_tga2k_v0101_v0101</name>
              <pathurl>file://localhost/Users/waNg/DESKtOp/20180731/plate/fuy004060_prd_jianghh_tga2k_v0101_v0101.mov</pathurl>
              <duration>92</duration>
              <rate>
                <ntsc>FALSE</ntsc>
                <timebase>25</timebase>
              </rate>
              <width>2048</width>
              <height>1152</height>
              <media>
                <video>
                  <duration>92</duration>
                  <samplecharacteristics>
                    <width>2048</width>
                    <height>1152</height>
                  </samplecharacteristics>
                </video>
                <audio>
                  <channelcount>2</channelcount>
                  <samplecharacteristics>
                    <depth>16</depth>
                    <samplerate>48000</samplerate>
                  </samplecharacteristics>
                </audio>
              </media>
              <timecode>
                <rate>
                  <ntsc>FALSE</ntsc>
                  <timebase>25</timebase>
                </rate>
                <frame>49850</frame>
                <displayformat>NDF</displayformat>
                <string>00:33:14:00</string>
              </timecode>
            </file>
          </clipitem>
          <clipitem>
            <name>fuy004061_prd_jianghh_tga2k_v0101_v0101</name>
            <duration>275</duration>
            <rate>
              <ntsc>FALSE</ntsc>
              <timebase>25</timebase>
            </rate>
            <enabled>TRUE</enabled>
            <in>0.0</in>
            <out>106.0</out>
            <start>194</start>
            <end>300</end>
            <file id="fuy004061_prd_jianghh_tga2k_v0101_v0101">
              <name>fuy004061_prd_jianghh_tga2k_v0101_v0101</name>
              <pathurl>file://localhost/Users/waNg/DESKtOp/20180731/plate/fuy004061_prd_jianghh_tga2k_v0101_v0101.mov</pathurl>
              <duration>275</duration>
              <rate>
                <ntsc>FALSE</ntsc>
                <timebase>25</timebase>
              </rate>
              <width>2048</width>
              <height>1152</height>
              <media>
                <video>
                  <duration>275</duration>
                  <samplecharacteristics>
                    <width>2048</width>
                    <height>1152</height>
                  </samplecharacteristics>
                </video>
                <audio>
                  <channelcount>2</channelcount>
                  <samplecharacteristics>
                    <depth>16</depth>
                    <samplerate>48000</samplerate>
                  </samplecharacteristics>
                </audio>
              </media>
              <timecode>
                <rate>
                  <ntsc>FALSE</ntsc>
                  <timebase>25</timebase>
                </rate>
                <frame>49942</frame>
                <displayformat>NDF</displayformat>
                <string>00:33:17:17</string>
              </timecode>
            </file>
            <filter>
              <effect>
                <name>Time Remap</name>
                <effectid>timeremap</effectid>
                <effectcategory>motion</effectcategory>
                <effecttype>motion</effecttype>
                <mediatype>video</mediatype>
                <parameter>
                  <name>speed</name>
                  <parameterid>speed</parameterid>
                  <value>259.999990463</value>
                </parameter>
              </effect>
            </filter>
          </clipitem>
          <clipitem>
            <name>fuy004097_prd_jianghh_tga2k_v0101_v0101</name>
            <duration>234</duration>
            <rate>
              <ntsc>FALSE</ntsc>
              <timebase>25</timebase>
            </rate>
            <enabled>TRUE</enabled>
            <in>0.0</in>
            <out>115.0</out>
            <start>300</start>
            <end>415</end>
            <file id="fuy004097_prd_jianghh_tga2k_v0101_v0101">
              <name>fuy004097_prd_jianghh_tga2k_v0101_v0101</name>
              <pathurl>file://localhost/Users/waNg/DESKtOp/20180731/plate/fuy004097_prd_jianghh_tga2k_v0101_v0101.mov</pathurl>
              <duration>234</duration>
              <rate>
                <ntsc>FALSE</ntsc>
                <timebase>25</timebase>
              </rate>
              <width>2048</width>
              <height>1152</height>
              <media>
                <video>
                  <duration>234</duration>
                  <samplecharacteristics>
                    <width>2048</width>
                    <height>1152</height>
                  </samplecharacteristics>
                </video>
                <audio>
                  <channelcount>2</channelcount>
                  <samplecharacteristics>
                    <depth>16</depth>
                    <samplerate>48000</samplerate>
                  </samplecharacteristics>
                </audio>
              </media>
              <timecode>
                <rate>
                  <ntsc>FALSE</ntsc>
                  <timebase>25</timebase>
                </rate>
                <frame>53149</frame>
                <displayformat>NDF</displayformat>
                <string>00:35:25:24</string>
              </timecode>
            </file>
            <filter>
              <effect>
                <name>Time Remap</name>
                <effectid>timeremap</effectid>
                <effectcategory>motion</effectcategory>
                <effecttype>motion</effecttype>
                <mediatype>video</mediatype>
                <parameter>
                  <name>speed</name>
                  <parameterid>speed</parameterid>
                  <value>200.0</value>
                </parameter>
              </effect>
            </filter>
          </clipitem>
          <clipitem>
            <name>fuy004106_prd_jianghh_tga2k_v0101_v0101</name>
            <duration>34</duration>
            <rate>
              <ntsc>FALSE</ntsc>
              <timebase>25</timebase>
            </rate>
            <enabled>TRUE</enabled>
            <in>0.0</in>
            <out>34.0</out>
            <start>415</start>
            <end>449</end>
            <file id="fuy004106_prd_jianghh_tga2k_v0101_v0101">
              <name>fuy004106_prd_jianghh_tga2k_v0101_v0101</name>
              <pathurl>file://localhost/Users/waNg/DESKtOp/20180731/plate/fuy004106_prd_jianghh_tga2k_v0101_v0101.mov</pathurl>
              <duration>34</duration>
              <rate>
                <ntsc>FALSE</ntsc>
                <timebase>25</timebase>
              </rate>
              <width>2048</width>
              <height>1152</height>
              <media>
                <video>
                  <duration>34</duration>
                  <samplecharacteristics>
                    <width>2048</width>
                    <height>1152</height>
                  </samplecharacteristics>
                </video>
                <audio>
                  <channelcount>2</channelcount>
                  <samplecharacteristics>
                    <depth>16</depth>
                    <samplerate>48000</samplerate>
                  </samplecharacteristics>
                </audio>
              </media>
              <timecode>
                <rate>
                  <ntsc>FALSE</ntsc>
                  <timebase>25</timebase>
                </rate>
                <frame>17832</frame>
                <displayformat>NDF</displayformat>
                <string>00:11:53:07</string>
              </timecode>
            </file>
          </clipitem>
          <clipitem>
            <name>fuy004109_prd_jianghh_tga2k_v0101_v0101</name>
            <duration>37</duration>
            <rate>
              <ntsc>FALSE</ntsc>
              <timebase>25</timebase>
            </rate>
            <enabled>TRUE</enabled>
            <in>0.0</in>
            <out>37.0</out>
            <start>449</start>
            <end>486</end>
            <file id="fuy004109_prd_jianghh_tga2k_v0101_v0101">
              <name>fuy004109_prd_jianghh_tga2k_v0101_v0101</name>
              <pathurl>file://localhost/Users/waNg/DESKtOp/20180731/plate/fuy004109_prd_jianghh_tga2k_v0101_v0101.mov</pathurl>
              <duration>37</duration>
              <rate>
                <ntsc>FALSE</ntsc>
                <timebase>25</timebase>
              </rate>
              <width>2048</width>
              <height>1152</height>
              <media>
                <video>
                  <duration>37</duration>
                  <samplecharacteristics>
                    <width>2048</width>
                    <height>1152</height>
                  </samplecharacteristics>
                </video>
                <audio>
                  <channelcount>2</channelcount>
                  <samplecharacteristics>
                    <depth>16</depth>
                    <samplerate>48000</samplerate>
                  </samplecharacteristics>
                </audio>
              </media>
              <timecode>
                <rate>
                  <ntsc>FALSE</ntsc>
                  <timebase>25</timebase>
                </rate>
                <frame>20478</frame>
                <displayformat>NDF</displayformat>
                <string>00:13:39:03</string>
              </timecode>
            </file>
          </clipitem>
          <clipitem>
            <name>fuy004110_prd_jianghh_tga2k_v0101_v0101</name>
            <duration>28</duration>
            <rate>
              <ntsc>FALSE</ntsc>
              <timebase>25</timebase>
            </rate>
            <enabled>TRUE</enabled>
            <in>0.0</in>
            <out>28.0</out>
            <start>486</start>
            <end>514</end>
            <file id="fuy004110_prd_jianghh_tga2k_v0101_v0101">
              <name>fuy004110_prd_jianghh_tga2k_v0101_v0101</name>
              <pathurl>file://localhost/Users/waNg/DESKtOp/20180731/plate/fuy004110_prd_jianghh_tga2k_v0101_v0101.mov</pathurl>
              <duration>28</duration>
              <rate>
                <ntsc>FALSE</ntsc>
                <timebase>25</timebase>
              </rate>
              <width>2048</width>
              <height>1152</height>
              <media>
                <video>
                  <duration>28</duration>
                  <samplecharacteristics>
                    <width>2048</width>
                    <height>1152</height>
                  </samplecharacteristics>
                </video>
                <audio>
                  <channelcount>2</channelcount>
                  <samplecharacteristics>
                    <depth>16</depth>
                    <samplerate>48000</samplerate>
                  </samplecharacteristics>
                </audio>
              </media>
              <timecode>
                <rate>
                  <ntsc>FALSE</ntsc>
                  <timebase>25</timebase>
                </rate>
                <frame>20504</frame>
                <displayformat>NDF</displayformat>
                <string>00:13:40:04</string>
              </timecode>
            </file>
          </clipitem>
          <clipitem>
            <name>fuy004113_prd_jianghh_tga2k_v0101_v0101</name>
            <duration>30</duration>
            <rate>
              <ntsc>FALSE</ntsc>
              <timebase>25</timebase>
            </rate>
            <enabled>TRUE</enabled>
            <in>0.0</in>
            <out>30.0</out>
            <start>514</start>
            <end>544</end>
            <file id="fuy004113_prd_jianghh_tga2k_v0101_v0101">
              <name>fuy004113_prd_jianghh_tga2k_v0101_v0101</name>
              <pathurl>file://localhost/Users/waNg/DESKtOp/20180731/plate/fuy004113_prd_jianghh_tga2k_v0101_v0101.mov</pathurl>
              <duration>30</duration>
              <rate>
                <ntsc>FALSE</ntsc>
                <timebase>25</timebase>
              </rate>
              <width>2048</width>
              <height>1152</height>
              <media>
                <video>
                  <duration>30</duration>
                  <samplecharacteristics>
                    <width>2048</width>
                    <height>1152</height>
                  </samplecharacteristics>
                </video>
                <audio>
                  <channelcount>2</channelcount>
                  <samplecharacteristics>
                    <depth>16</depth>
                    <samplerate>48000</samplerate>
                  </samplecharacteristics>
                </audio>
              </media>
              <timecode>
                <rate>
                  <ntsc>FALSE</ntsc>
                  <timebase>25</timebase>
                </rate>
                <frame>20568</frame>
                <displayformat>NDF</displayformat>
                <string>00:13:42:18</string>
              </timecode>
            </file>
          </clipitem>
          <clipitem>
            <name>fuy004114_prd_jianghh_tga2k_v0101_v0101</name>
            <duration>68</duration>
            <rate>
              <ntsc>FALSE</ntsc>
              <timebase>25</timebase>
            </rate>
            <enabled>TRUE</enabled>
            <in>0.0</in>
            <out>68.0</out>
            <start>544</start>
            <end>612</end>
            <file id="fuy004114_prd_jianghh_tga2k_v0101_v0101">
              <name>fuy004114_prd_jianghh_tga2k_v0101_v0101</name>
              <pathurl>file://localhost/Users/waNg/DESKtOp/20180731/plate/fuy004114_prd_jianghh_tga2k_v0101_v0101.mov</pathurl>
              <duration>68</duration>
              <rate>
                <ntsc>FALSE</ntsc>
                <timebase>25</timebase>
              </rate>
              <width>2048</width>
              <height>1152</height>
              <media>
                <video>
                  <duration>68</duration>
                  <samplecharacteristics>
                    <width>2048</width>
                    <height>1152</height>
                  </samplecharacteristics>
                </video>
                <audio>
                  <channelcount>2</channelcount>
                  <samplecharacteristics>
                    <depth>16</depth>
                    <samplerate>48000</samplerate>
                  </samplecharacteristics>
                </audio>
              </media>
              <timecode>
                <rate>
                  <ntsc>FALSE</ntsc>
                  <timebase>25</timebase>
                </rate>
                <frame>20642</frame>
                <displayformat>NDF</displayformat>
                <string>00:13:45:17</string>
              </timecode>
            </file>
          </clipitem>
          <clipitem>
            <name>fuy004116_prd_jianghh_tga2k_v0101_v0101</name>
            <duration>80</duration>
            <rate>
              <ntsc>FALSE</ntsc>
              <timebase>25</timebase>
            </rate>
            <enabled>TRUE</enabled>
            <in>0.0</in>
            <out>80.0</out>
            <start>612</start>
            <end>692</end>
            <file id="fuy004116_prd_jianghh_tga2k_v0101_v0101">
              <name>fuy004116_prd_jianghh_tga2k_v0101_v0101</name>
              <pathurl>file://localhost/Users/waNg/DESKtOp/20180731/plate/fuy004116_prd_jianghh_tga2k_v0101_v0101.mov</pathurl>
              <duration>80</duration>
              <rate>
                <ntsc>FALSE</ntsc>
                <timebase>25</timebase>
              </rate>
              <width>2048</width>
              <height>1152</height>
              <media>
                <video>
                  <duration>80</duration>
                  <samplecharacteristics>
                    <width>2048</width>
                    <height>1152</height>
                  </samplecharacteristics>
                </video>
                <audio>
                  <channelcount>2</channelcount>
                  <samplecharacteristics>
                    <depth>16</depth>
                    <samplerate>48000</samplerate>
                  </samplecharacteristics>
                </audio>
              </media>
              <timecode>
                <rate>
                  <ntsc>FALSE</ntsc>
                  <timebase>25</timebase>
                </rate>
                <frame>26046</frame>
                <displayformat>NDF</displayformat>
                <string>00:17:21:21</string>
              </timecode>
            </file>
          </clipitem>
          <clipitem>
            <name>fuy004118_prd_jianghh_tga2k_v0101_v0101</name>
            <duration>116</duration>
            <rate>
              <ntsc>FALSE</ntsc>
              <timebase>25</timebase>
            </rate>
            <enabled>TRUE</enabled>
            <in>0.0</in>
            <out>116.0</out>
            <start>692</start>
            <end>808</end>
            <file id="fuy004118_prd_jianghh_tga2k_v0101_v0101">
              <name>fuy004118_prd_jianghh_tga2k_v0101_v0101</name>
              <pathurl>file://localhost/Users/waNg/DESKtOp/20180731/plate/fuy004118_prd_jianghh_tga2k_v0101_v0101.mov</pathurl>
              <duration>116</duration>
              <rate>
                <ntsc>FALSE</ntsc>
                <timebase>25</timebase>
              </rate>
              <width>2048</width>
              <height>1152</height>
              <media>
                <video>
                  <duration>116</duration>
                  <samplecharacteristics>
                    <width>2048</width>
                    <height>1152</height>
                  </samplecharacteristics>
                </video>
                <audio>
                  <channelcount>2</channelcount>
                  <samplecharacteristics>
                    <depth>16</depth>
                    <samplerate>48000</samplerate>
                  </samplecharacteristics>
                </audio>
              </media>
              <timecode>
                <rate>
                  <ntsc>FALSE</ntsc>
                  <timebase>25</timebase>
                </rate>
                <frame>26332</frame>
                <displayformat>NDF</displayformat>
                <string>00:17:33:07</string>
              </timecode>
            </file>
          </clipitem>
          <clipitem>
            <name>fuy004119_prd_jianghh_tga2k_v0101_v0101</name>
            <duration>55</duration>
            <rate>
              <ntsc>FALSE</ntsc>
              <timebase>25</timebase>
            </rate>
            <enabled>TRUE</enabled>
            <in>0.0</in>
            <out>55.0</out>
            <start>808</start>
            <end>863</end>
            <file id="fuy004119_prd_jianghh_tga2k_v0101_v0101">
              <name>fuy004119_prd_jianghh_tga2k_v0101_v0101</name>
              <pathurl>file://localhost/Users/waNg/DESKtOp/20180731/plate/fuy004119_prd_jianghh_tga2k_v0101_v0101.mov</pathurl>
              <duration>55</duration>
              <rate>
                <ntsc>FALSE</ntsc>
                <timebase>25</timebase>
              </rate>
              <width>2048</width>
              <height>1152</height>
              <media>
                <video>
                  <duration>55</duration>
                  <samplecharacteristics>
                    <width>2048</width>
                    <height>1152</height>
                  </samplecharacteristics>
                </video>
                <audio>
                  <channelcount>2</channelcount>
                  <samplecharacteristics>
                    <depth>16</depth>
                    <samplerate>48000</samplerate>
                  </samplecharacteristics>
                </audio>
              </media>
              <timecode>
                <rate>
                  <ntsc>FALSE</ntsc>
                  <timebase>25</timebase>
                </rate>
                <frame>26542</frame>
                <displayformat>NDF</displayformat>
                <string>00:17:41:17</string>
              </timecode>
            </file>
          </clipitem>
          <clipitem>
            <name>fuy004121_prd_jianghh_tga2k_v0101_v0101</name>
            <duration>114</duration>
            <rate>
              <ntsc>FALSE</ntsc>
              <timebase>25</timebase>
            </rate>
            <enabled>TRUE</enabled>
            <in>0.0</in>
            <out>114.0</out>
            <start>863</start>
            <end>977</end>
            <file id="fuy004121_prd_jianghh_tga2k_v0101_v0101">
              <name>fuy004121_prd_jianghh_tga2k_v0101_v0101</name>
              <pathurl>file://localhost/Users/waNg/DESKtOp/20180731/plate/fuy004121_prd_jianghh_tga2k_v0101_v0101.mov</pathurl>
              <duration>114</duration>
              <rate>
                <ntsc>FALSE</ntsc>
                <timebase>25</timebase>
              </rate>
              <width>2048</width>
              <height>1152</height>
              <media>
                <video>
                  <duration>114</duration>
                  <samplecharacteristics>
                    <width>2048</width>
                    <height>1152</height>
                  </samplecharacteristics>
                </video>
                <audio>
                  <channelcount>2</channelcount>
                  <samplecharacteristics>
                    <depth>16</depth>
                    <samplerate>48000</samplerate>
                  </samplecharacteristics>
                </audio>
              </media>
              <timecode>
                <rate>
                  <ntsc>FALSE</ntsc>
                  <timebase>25</timebase>
                </rate>
                <frame>26688</frame>
                <displayformat>NDF</displayformat>
                <string>00:17:47:13</string>
              </timecode>
            </file>
          </clipitem>
        </track>
      </video>
      <audio>
        <format>
          <samplecharacteristics>
            <depth>16</depth>
            <samplerate>48000</samplerate>
          </samplecharacteristics>
        </format>
      </audio>
    </media>
  </sequence>
</xmeml>